<svg width="22" height="22" viewBox="0 0 22 22" fill="none" xmlns="http://www.w3.org/2000/svg">
<path d="M12.3333 1.66667C12.3333 0.930286 11.7363 0.333332 10.9999 0.333332C10.2635 0.333332 9.66658 0.930286 9.66658 1.66667V9.66666H1.66659C0.930205 9.66666 0.333252 10.2636 0.333252 11C0.333252 11.7364 0.930205 12.3333 1.66659 12.3333H9.66658V20.3333C9.66658 21.0697 10.2635 21.6667 10.9999 21.6667C11.7363 21.6667 12.3333 21.0697 12.3333 20.3333V12.3333H20.3333C21.0696 12.3333 21.6666 11.7364 21.6666 11C21.6666 10.2636 21.0696 9.66667 20.3333 9.66667H12.3333V1.66667Z" fill="#fff"/>
</svg>
