<svg width="20" height="20" viewBox="0 0 20 20" fill="none" xmlns="http://www.w3.org/2000/svg">
<path d="M9.16663 10.8333L9.16662 7.49999C9.16662 7.03975 9.53972 6.66666 9.99996 6.66666C10.4602 6.66666 10.8333 7.03975 10.8333 7.49999L10.8333 10.8333C10.8333 11.2936 10.4602 11.6667 9.99996 11.6667C9.53972 11.6667 9.16663 11.2936 9.16663 10.8333Z" fill="#EB5757"/>
<path d="M9.99996 15C10.4602 15 10.8333 14.6269 10.8333 14.1667C10.8333 13.7064 10.4602 13.3333 9.99996 13.3333C9.53972 13.3333 9.16663 13.7064 9.16663 14.1667C9.16663 14.6269 9.53972 15 9.99996 15Z" fill="#EB5757"/>
<path fill-rule="evenodd" clip-rule="evenodd" d="M9.99996 1.66666C10.6312 1.66666 11.2084 2.02333 11.4907 2.58797L18.1573 15.9213C18.4157 16.4379 18.3881 17.0515 18.0844 17.5429C17.7807 18.0342 17.2443 18.3333 16.6666 18.3333H3.33329C2.75567 18.3333 2.21922 18.0342 1.91554 17.5429C1.61187 17.0515 1.58426 16.4379 1.84258 15.9213L8.50925 2.58797C8.79157 2.02333 9.36868 1.66666 9.99996 1.66666ZM3.33329 16.6667H16.6666L9.99996 3.33332L3.33329 16.6667Z" fill="#EB5757"/>
</svg>
