<svg width="31" height="38" viewBox="0 0 31 38" fill="none" xmlns="http://www.w3.org/2000/svg">
<g clip-path="url(#clip0_202_1019)">
<path d="M25.89 20.1497C25.9435 25.8895 30.9444 27.7995 30.9998 27.8238C30.9574 27.9585 30.2007 30.5457 28.3651 33.2182C26.7783 35.5287 25.1313 37.8306 22.5369 37.8783C19.9879 37.9251 19.1681 36.3724 16.2536 36.3724C13.3399 36.3724 12.4292 37.8306 10.016 37.9251C7.51181 38.0195 5.60482 35.4267 4.00493 33.1247C0.735402 28.4159 -1.76313 19.8186 1.59178 14.0154C3.25839 11.1334 6.23693 9.30855 9.46965 9.26175C11.9287 9.21506 14.2498 10.9099 15.7531 10.9099C17.2554 10.9099 20.076 8.87173 23.0412 9.17103C24.2824 9.22254 27.767 9.67046 30.0045 12.9331C29.8241 13.0445 25.8467 15.3512 25.89 20.1498M21.0991 6.05575C22.4287 4.45251 23.3235 2.22077 23.0794 0C21.163 0.0767238 18.8457 1.27222 17.471 2.87449C16.2392 4.29352 15.1603 6.56459 15.4514 8.74133C17.5875 8.90599 19.7695 7.65996 21.0991 6.05575Z" fill="black"/>
</g>
<defs>
<clipPath id="clip0_202_1019">
<rect width="31" height="38" fill="white"/>
</clipPath>
</defs>
</svg>
