<svg width="30" height="22" viewBox="0 0 30 22" fill="none" xmlns="http://www.w3.org/2000/svg">
<path fill-rule="evenodd" clip-rule="evenodd" d="M7.72386 19.5945C8.24456 20.1352 9.08878 20.1352 9.60948 19.5945C10.1302 19.0537 10.1302 18.177 9.60948 17.6363L4.1811 11.9992L19.9796 11.9992C20.5431 11.9992 21 11.5514 21 10.9992C21 10.4469 20.5431 9.99916 19.9796 9.99916L4.18272 9.99916L9.60948 4.36369C10.1302 3.82296 10.1302 2.94627 9.60948 2.40554C9.08878 1.86482 8.24456 1.86482 7.72386 2.40554L0.390523 10.0209C-0.130175 10.5617 -0.130175 11.4383 0.390524 11.9791L7.72386 19.5945Z" fill="#193A6F"/>
<path d="M28 20.0009V1.99912" stroke="#193A6F" stroke-width="3" stroke-linecap="round"/>
</svg>
