<svg width="21" height="17" viewBox="0 0 21 17" fill="none" xmlns="http://www.w3.org/2000/svg">
<path fillRule="evenodd" clipRule="evenodd" d="M15.4831 14.6389C15.1111 15.0251 14.5081 15.0251 14.1362 14.6389C13.7643 14.2527 13.7643 13.6265 14.1362 13.2402L18.0136 9.21366L6.72887 9.21366C6.32633 9.21366 6 8.89386 6 8.49937C6 8.10488 6.32633 7.78508 6.72887 7.78508L18.0125 7.78508L14.1362 3.75971C13.7643 3.37348 13.7643 2.74727 14.1362 2.36103C14.5081 1.9748 15.1111 1.9748 15.4831 2.36103L20.7212 7.80063C21.0931 8.18686 21.0931 8.81308 20.7212 9.19931L15.4831 14.6389Z" fill="#193A6F"/>
<path d="M2 15L2 1.99997" stroke="#193A6F" strokeWidth="3" strokeLinecap="round"/>
</svg>
