<svg width="32" height="32" viewBox="0 0 32 32" fill="none" xmlns="http://www.w3.org/2000/svg">
<path d="M28.4286 6H3.28571C2.02335 6 1 7.02335 1 8.28571V24.2857C1 25.5481 2.02335 26.5714 3.28571 26.5714H28.4286C29.6909 26.5714 30.7143 25.5481 30.7143 24.2857V8.28571C30.7143 7.02335 29.6909 6 28.4286 6Z" stroke="#8C9CB7" stroke-width="1.5" stroke-linecap="round" stroke-linejoin="round"/>
<path d="M15.4286 19.7143C17.3221 19.7143 18.8571 18.1793 18.8571 16.2857C18.8571 14.3922 17.3221 12.8571 15.4286 12.8571C13.535 12.8571 12 14.3922 12 16.2857C12 18.1793 13.535 19.7143 15.4286 19.7143Z" stroke="#8C9CB7" stroke-linecap="round" stroke-linejoin="round"/>
<path d="M6 11H7.14286M23.1429 20.1429H24.2857" stroke="#8C9CB7" stroke-linecap="round" stroke-linejoin="round"/>
</svg>
