<svg width="32" height="32" viewBox="0 0 32 32" fill="none" xmlns="http://www.w3.org/2000/svg">
<path d="M28.5711 5.71429H3.42829C2.16593 5.71429 1.14258 6.73764 1.14258 8V24C1.14258 25.2624 2.16593 26.2857 3.42829 26.2857H28.5711C29.8335 26.2857 30.8569 25.2624 30.8569 24V8C30.8569 6.73764 29.8335 5.71429 28.5711 5.71429Z" fill="#193A6F"/>
<path d="M15.9999 19.4286C17.8934 19.4286 19.4284 17.8935 19.4284 16C19.4284 14.1064 17.8934 12.5714 15.9999 12.5714C14.1063 12.5714 12.5713 14.1064 12.5713 16C12.5713 17.8935 14.1063 19.4286 15.9999 19.4286Z" fill="#D1D8E2"/>
<path d="M6.85645 11.4286H7.9993M23.9993 20.5714H25.1422" stroke="#D1D8E2" stroke-width="0.5" stroke-linecap="round" stroke-linejoin="round"/>
</svg>
