<svg width="20" height="21" viewBox="0 0 20 21" fill="none" xmlns="http://www.w3.org/2000/svg">
<path d="M6.66669 11.3334C7.12692 11.3334 7.50002 10.9603 7.50002 10.5C7.50002 10.0398 7.12692 9.66669 6.66669 9.66669C6.20645 9.66669 5.83335 10.0398 5.83335 10.5C5.83335 10.9603 6.20645 11.3334 6.66669 11.3334Z" fill="#193A6F"/>
<path d="M10.8334 10.5C10.8334 10.9603 10.4603 11.3334 10 11.3334C9.53978 11.3334 9.16669 10.9603 9.16669 10.5C9.16669 10.0398 9.53978 9.66669 10 9.66669C10.4603 9.66669 10.8334 10.0398 10.8334 10.5Z" fill="#193A6F"/>
<path d="M13.3334 11.3334C13.7936 11.3334 14.1667 10.9603 14.1667 10.5C14.1667 10.0398 13.7936 9.66669 13.3334 9.66669C12.8731 9.66669 12.5 10.0398 12.5 10.5C12.5 10.9603 12.8731 11.3334 13.3334 11.3334Z" fill="#193A6F"/>
<path d="M7.50002 13.8334C7.50002 14.2936 7.12692 14.6667 6.66669 14.6667C6.20645 14.6667 5.83335 14.2936 5.83335 13.8334C5.83335 13.3731 6.20645 13 6.66669 13C7.12692 13 7.50002 13.3731 7.50002 13.8334Z" fill="#193A6F"/>
<path d="M10 14.6667C10.4603 14.6667 10.8334 14.2936 10.8334 13.8334C10.8334 13.3731 10.4603 13 10 13C9.53978 13 9.16669 13.3731 9.16669 13.8334C9.16669 14.2936 9.53978 14.6667 10 14.6667Z" fill="#193A6F"/>
<path fill-rule="evenodd" clip-rule="evenodd" d="M6.66669 3.00002C6.66669 2.53978 6.29359 2.16669 5.83335 2.16669C5.37312 2.16669 5.00002 2.53978 5.00002 3.00002H3.33335C2.41288 3.00002 1.66669 3.74621 1.66669 4.66669V16.3334C1.66669 17.2538 2.41288 18 3.33335 18H16.6667C17.5872 18 18.3334 17.2538 18.3334 16.3334V4.66669C18.3334 3.74621 17.5872 3.00002 16.6667 3.00002H15C15 2.53978 14.6269 2.16669 14.1667 2.16669C13.7065 2.16669 13.3334 2.53978 13.3334 3.00002H6.66669ZM3.33335 6.33335V4.66669H16.6667V6.33335H3.33335ZM3.33335 8.00002V16.3334H11.8097L16.6667 11.4764V8.00002H3.33335ZM16.6667 13.8334L14.1667 16.3334H16.6667V13.8334Z" fill="#193A6F"/>
</svg>
