<svg width="21" height="20" viewBox="0 0 21 20" fill="none" xmlns="http://www.w3.org/2000/svg">
<path d="M7.54167 10.8334C8.00191 10.8334 8.37501 10.4603 8.37501 10C8.37501 9.53978 8.00191 9.16669 7.54167 9.16669C7.08143 9.16669 6.70834 9.53978 6.70834 10C6.70834 10.4603 7.08143 10.8334 7.54167 10.8334Z" fill="#B2BDCF"/>
<path d="M11.7083 10C11.7083 10.4603 11.3352 10.8334 10.875 10.8334C10.4148 10.8334 10.0417 10.4603 10.0417 10C10.0417 9.53978 10.4148 9.16669 10.875 9.16669C11.3352 9.16669 11.7083 9.53978 11.7083 10Z" fill="#B2BDCF"/>
<path d="M14.2083 10.8334C14.6686 10.8334 15.0417 10.4603 15.0417 10C15.0417 9.53978 14.6686 9.16669 14.2083 9.16669C13.7481 9.16669 13.375 9.53978 13.375 10C13.375 10.4603 13.7481 10.8334 14.2083 10.8334Z" fill="#B2BDCF"/>
<path d="M8.37501 13.3334C8.37501 13.7936 8.00191 14.1667 7.54167 14.1667C7.08143 14.1667 6.70834 13.7936 6.70834 13.3334C6.70834 12.8731 7.08143 12.5 7.54167 12.5C8.00191 12.5 8.37501 12.8731 8.37501 13.3334Z" fill="#B2BDCF"/>
<path d="M10.875 14.1667C11.3352 14.1667 11.7083 13.7936 11.7083 13.3334C11.7083 12.8731 11.3352 12.5 10.875 12.5C10.4148 12.5 10.0417 12.8731 10.0417 13.3334C10.0417 13.7936 10.4148 14.1667 10.875 14.1667Z" fill="#B2BDCF"/>
<path fill-rule="evenodd" clip-rule="evenodd" d="M7.54167 2.50002C7.54167 2.03978 7.16858 1.66669 6.70834 1.66669C6.2481 1.66669 5.87501 2.03978 5.87501 2.50002H4.20834C3.28786 2.50002 2.54167 3.24621 2.54167 4.16669V15.8334C2.54167 16.7538 3.28786 17.5 4.20834 17.5H17.5417C18.4621 17.5 19.2083 16.7538 19.2083 15.8334V4.16669C19.2083 3.24621 18.4621 2.50002 17.5417 2.50002H15.875C15.875 2.03978 15.5019 1.66669 15.0417 1.66669C14.5814 1.66669 14.2083 2.03978 14.2083 2.50002H7.54167ZM4.20834 5.83335V4.16669H17.5417V5.83335H4.20834ZM4.20834 7.50002V15.8334H12.6847L17.5417 10.9764V7.50002H4.20834ZM17.5417 13.3334L15.0417 15.8334H17.5417V13.3334Z" fill="#B2BDCF"/>
</svg>
