<svg width="244" height="245" viewBox="0 0 244 245" fill="none" xmlns="http://www.w3.org/2000/svg">
<path d="M218 98C216.195 83.6387 211.477 69.7496 204.085 57.2079C194.431 40.8301 180.569 27.3505 163.947 18.176C147.325 9.00147 128.552 4.46831 109.586 5.04964C94.7783 5.50354 80.2772 9.06238 67 15.4443" stroke="#4EAAE4" stroke-width="10" stroke-linecap="round"/>
<path d="M7.09007 119.178C8.70953 136.96 13.1811 149.39 20.8891 162.796C29.9503 178.555 42.873 191.743 58.4272 201.103C73.9813 210.464 91.6491 215.686 109.748 216.272C127.351 216.842 144.791 213.008 160.5 205.128" stroke="#4F75AD" stroke-width="10" stroke-linecap="round"/>
<path d="M172.352 197.253C186.439 187.442 197.95 174.383 205.901 159.189C213.697 144.291 217.844 127.775 218.008 111" stroke="#E9A5BD" stroke-width="10" stroke-linecap="round"/>
<path d="M54 23C39.0749 32.905 26.9102 46.4569 18.6519 62.379C11.9339 75.3314 7.98096 89.5055 7 104" stroke="#A81A4C" stroke-width="10" stroke-linecap="round"/>
<path d="M68.892 116.598C63.188 116.598 58.864 114.344 56.196 111.262L60.198 106.754C62.406 109.146 65.396 110.48 68.57 110.48C72.066 110.48 74.09 108.87 74.09 106.616C74.09 104.178 72.204 102.936 67.926 102.982H64.292V97.186L67.926 97.232C71.376 97.232 73.446 95.944 73.446 93.69C73.446 91.39 71.284 89.918 68.156 89.918C65.166 89.918 62.82 91.39 60.704 93.598L56.794 89.458C59.416 86.284 63.188 83.846 68.8 83.846C75.93 83.846 80.392 87.48 80.392 92.494C80.392 96.128 77.908 98.75 74.458 99.762C77.908 100.544 81.082 102.982 81.082 107.168C81.082 112.642 76.252 116.598 68.892 116.598ZM84.9205 116V110.48L96.5585 101.464C100.33 98.474 101.526 96.404 101.526 94.196C101.526 91.574 99.3185 90.01 96.7425 90.01C93.6605 90.01 91.3145 91.574 89.0145 94.196L84.6905 90.01C87.8185 86.054 91.8205 83.846 96.9265 83.846C103.642 83.846 108.518 87.986 108.518 93.92C108.518 98.152 106.678 101.418 101.158 105.42L95.4085 109.882H108.794V116H84.9205ZM127.854 95.576C133.696 95.576 138.526 99.348 138.526 105.604C138.526 112.09 133.328 116.552 126.428 116.552C117.182 116.552 112.996 109.928 112.996 100.728C112.996 90.884 118.746 83.846 127.486 83.846C131.442 83.846 134.616 85.18 137.192 87.25L133.972 92.402C132.04 90.792 130.154 89.826 127.532 89.826C123.438 89.826 120.632 93.23 120.034 98.566C122.012 96.68 124.864 95.576 127.854 95.576ZM126.06 110.802C129.418 110.802 131.534 108.456 131.534 105.926C131.534 102.89 128.958 101.096 125.876 101.096C123.254 101.096 121.138 102.522 120.218 104.776C120.816 108.64 122.518 110.802 126.06 110.802ZM154.468 116.598C149.178 116.598 145.176 114.666 142.232 111.722L146.234 106.938C148.58 109.192 151.478 110.664 154.514 110.664C158.056 110.664 160.264 108.548 160.264 105.834C160.264 103.074 158.01 101.234 154.56 101.234C152.168 101.234 150.144 102.016 148.442 103.304L143.888 101.464L144.348 84.398H165.278V90.516H150.604L150.42 97.508C151.984 96.404 154.008 95.576 156.584 95.576C162.196 95.576 167.026 99.164 167.026 105.604C167.026 112.32 162.012 116.598 154.468 116.598Z" fill="#193A6F"/>
<path d="M62.836 130.392V129.208H67.236V133.512C66.212 134.536 64.484 135.192 62.964 135.192C59.924 135.192 57.332 132.584 57.332 129.496C57.332 126.408 59.924 123.816 62.964 123.816C64.484 123.816 66.212 124.456 67.236 125.496L66.388 126.36C65.588 125.512 64.164 124.968 62.964 124.968C60.596 124.968 58.596 127.048 58.596 129.496C58.596 131.96 60.596 134.04 62.964 134.04C63.988 134.04 65.172 133.64 65.988 133.016V130.392H62.836ZM77.4139 124.008H78.6619V135H77.4139V129.992H70.9339V135H69.6859V124.008H70.9339V128.808H77.4139V124.008ZM86.6739 123.416C87.2072 123.437 87.7192 123.507 88.2099 123.624C88.7005 123.731 89.1432 123.885 89.5379 124.088L88.9619 125.304C88.6419 125.155 88.2899 125.021 87.9059 124.904C87.5325 124.787 87.1219 124.717 86.6739 124.696V133.896C87.1112 133.875 87.5272 133.827 87.9219 133.752C88.3165 133.667 88.7059 133.565 89.0899 133.448V134.696C88.7272 134.835 88.3539 134.936 87.9699 135C87.5965 135.075 87.1645 135.123 86.6739 135.144V136.28H85.6499V135.144C84.5939 135.069 83.7139 134.787 83.0099 134.296C82.3059 133.795 81.7779 133.117 81.4259 132.264C81.0739 131.411 80.8979 130.413 80.8979 129.272C80.8979 128.205 81.0792 127.256 81.4419 126.424C81.8152 125.581 82.3539 124.904 83.0579 124.392C83.7619 123.869 84.6259 123.56 85.6499 123.464V122.856H86.6739V123.416ZM85.6499 124.728C84.9779 124.835 84.4019 125.085 83.9219 125.48C83.4419 125.875 83.0685 126.397 82.8019 127.048C82.5459 127.688 82.4179 128.435 82.4179 129.288C82.4179 130.141 82.5352 130.893 82.7699 131.544C83.0152 132.195 83.3779 132.717 83.8579 133.112C84.3379 133.507 84.9352 133.752 85.6499 133.848V124.728ZM94.6713 135.192C92.8633 135.192 91.4713 134.36 90.6713 133.304L91.5353 132.488C92.2553 133.416 93.3273 134.056 94.6713 134.056C96.2073 134.056 97.2313 133.208 97.2313 131.96C97.2313 130.664 96.1273 130.008 94.3993 130.008H93.2313V128.856L94.4153 128.872C95.8873 128.888 96.9913 128.184 96.9913 126.936C96.9913 125.784 95.9353 124.952 94.5593 124.952C93.3433 124.952 92.4793 125.56 91.6953 126.504L90.8633 125.752C91.6953 124.648 92.9113 123.816 94.6233 123.816C96.7193 123.816 98.2552 125.032 98.2552 126.792C98.2552 128.2 97.2633 129.032 96.1273 129.368C97.2473 129.624 98.4953 130.44 98.4953 132.024C98.4953 133.864 96.9593 135.192 94.6713 135.192ZM105.694 135V132.328H100.206L100.046 131.288L105.502 124.008H106.942V131.192H108.59V132.328H106.942V135H105.694ZM101.47 131.192H105.694V125.512L101.47 131.192ZM111.231 137.128L110.639 136.68C111.071 136.184 111.343 135.688 111.471 135.192C110.991 135.192 110.607 134.792 110.607 134.312C110.607 133.864 110.975 133.464 111.487 133.464C112.095 133.464 112.463 134.008 112.463 134.744C112.463 135.384 112.191 135.928 111.231 137.128ZM114.378 135V133.96L118.394 130.536C119.946 129.208 120.586 128.152 120.586 127.064C120.586 125.72 119.466 124.936 118.298 124.936C117.018 124.936 116.106 125.624 115.354 126.648L114.474 125.928C115.386 124.632 116.618 123.816 118.346 123.816C120.25 123.816 121.85 125.08 121.85 127.048C121.85 128.536 121.114 129.72 119.258 131.32L116.378 133.816H121.962V135H114.378ZM129.304 135V132.328H123.816L123.656 131.288L129.112 124.008H130.552V131.192H132.2V132.328H130.552V135H129.304ZM125.08 131.192H129.304V125.512L125.08 131.192ZM137.624 135.192C135.816 135.192 134.424 134.36 133.624 133.304L134.488 132.488C135.208 133.416 136.28 134.056 137.624 134.056C139.16 134.056 140.184 133.208 140.184 131.96C140.184 130.664 139.08 130.008 137.352 130.008H136.184V128.856L137.368 128.872C138.84 128.888 139.944 128.184 139.944 126.936C139.944 125.784 138.888 124.952 137.512 124.952C136.296 124.952 135.432 125.56 134.648 126.504L133.816 125.752C134.648 124.648 135.864 123.816 137.576 123.816C139.672 123.816 141.208 125.032 141.208 126.792C141.208 128.2 140.216 129.032 139.08 129.368C140.2 129.624 141.448 130.44 141.448 132.024C141.448 133.864 139.912 135.192 137.624 135.192ZM144.407 135.192C143.911 135.192 143.527 134.792 143.527 134.312C143.527 133.864 143.911 133.464 144.407 133.464C144.871 133.464 145.255 133.864 145.255 134.312C145.255 134.792 144.871 135.192 144.407 135.192ZM151.926 135.192C149.238 135.192 147.35 132.84 147.35 129.496C147.35 126.168 149.238 123.816 151.926 123.816C154.598 123.816 156.486 126.168 156.486 129.496C156.486 132.84 154.598 135.192 151.926 135.192ZM151.926 134.04C153.862 134.04 155.222 132.152 155.222 129.496C155.222 126.84 153.862 124.968 151.926 124.968C149.99 124.968 148.614 126.84 148.614 129.496C148.614 132.152 149.99 134.04 151.926 134.04ZM162.958 135.192C160.27 135.192 158.382 132.84 158.382 129.496C158.382 126.168 160.27 123.816 162.958 123.816C165.63 123.816 167.518 126.168 167.518 129.496C167.518 132.84 165.63 135.192 162.958 135.192ZM162.958 134.04C164.894 134.04 166.253 132.152 166.253 129.496C166.253 126.84 164.894 124.968 162.958 124.968C161.022 124.968 159.646 126.84 159.646 129.496C159.646 132.152 161.022 134.04 162.958 134.04Z" fill="#8C9CB7"/>
<path d="M60.928 155V145.028H57.076V142.634H67.444V145.028H63.592V155H60.928ZM73.7201 155.216C70.9481 155.216 68.6261 152.984 68.6261 150.338C68.6261 147.692 70.9481 145.478 73.7201 145.478C76.4741 145.478 78.7781 147.692 78.7781 150.338C78.7781 152.984 76.4741 155.216 73.7201 155.216ZM73.7201 153.002C75.1061 153.002 76.2761 151.778 76.2761 150.338C76.2761 148.898 75.1061 147.692 73.7201 147.692C72.3161 147.692 71.1461 148.898 71.1461 150.338C71.1461 151.778 72.3161 153.002 73.7201 153.002ZM85.4523 152.696L86.0823 154.406C85.5423 154.892 84.6963 155.216 83.9403 155.216C82.3023 155.216 81.1503 154.046 81.1503 152.372V147.818H79.8723V145.694H81.1503V143.138H83.6703V145.694H85.6863V147.818H83.6703V151.958C83.6703 152.57 84.0663 153.002 84.5523 153.002C84.9123 153.002 85.2723 152.876 85.4523 152.696ZM91.8862 145.478C94.3162 145.478 95.9722 147.008 95.9722 149.438V155H93.4342V154.064C92.7682 154.82 91.7062 155.216 90.6982 155.216C88.7182 155.216 87.1882 154.028 87.1882 152.246C87.1882 150.41 88.8982 149.15 91.0582 149.15C91.8142 149.15 92.6422 149.312 93.4342 149.618V149.438C93.4342 148.448 92.8222 147.584 91.2922 147.584C90.4282 147.584 89.6182 147.872 88.8802 148.25L87.9982 146.504C89.3122 145.838 90.5902 145.478 91.8862 145.478ZM91.2922 153.398C92.3002 153.398 93.2542 152.93 93.4342 152.066V151.202C92.8402 150.986 92.1562 150.86 91.4362 150.86C90.4822 150.86 89.7262 151.418 89.7262 152.174C89.7262 152.93 90.3922 153.398 91.2922 153.398ZM98.1872 155V142.418H100.815V155H98.1872ZM114.292 155.216C110.746 155.216 107.722 152.282 107.722 148.808C107.722 145.334 110.746 142.418 114.292 142.418C117.874 142.418 120.862 145.334 120.862 148.808C120.862 152.282 117.874 155.216 114.292 155.216ZM114.292 152.804C116.38 152.804 118.144 150.968 118.144 148.808C118.144 146.666 116.38 144.83 114.292 144.83C112.222 144.83 110.458 146.666 110.458 148.808C110.458 150.968 112.222 152.804 114.292 152.804ZM125.372 147.422C125.984 146.216 127.136 145.478 128.558 145.478V147.692C126.614 147.692 125.372 148.808 125.372 150.554V155H122.744V145.694H125.372V147.422ZM137.022 142.418H139.65V155H137.022V153.668C136.284 154.64 135.204 155.216 133.89 155.216C131.406 155.216 129.606 153.2 129.606 150.338C129.606 147.494 131.406 145.478 133.89 145.478C135.204 145.478 136.284 146.054 137.022 147.026V142.418ZM134.646 153.002C136.032 153.002 137.022 151.904 137.022 150.338C137.022 148.79 136.032 147.692 134.646 147.692C133.188 147.692 132.162 148.79 132.162 150.338C132.162 151.904 133.188 153.002 134.646 153.002ZM146.349 152.894C147.087 152.894 147.987 152.552 148.491 152.066L150.165 153.776C149.337 154.64 147.735 155.216 146.367 155.216C143.595 155.216 141.435 153.182 141.435 150.32C141.435 147.512 143.505 145.478 146.223 145.478C149.139 145.478 150.849 147.692 150.849 151.202H144.135C144.441 152.21 145.251 152.894 146.349 152.894ZM146.331 147.8C145.341 147.8 144.513 148.376 144.171 149.312H148.329C148.077 148.394 147.393 147.8 146.331 147.8ZM155.255 147.422C155.867 146.216 157.019 145.478 158.441 145.478V147.692C156.497 147.692 155.255 148.808 155.255 150.554V155H152.627V145.694H155.255V147.422ZM163.449 155.216C161.955 155.216 160.371 154.712 159.255 153.812L160.389 151.994C161.217 152.588 162.261 153.038 163.503 153.038C164.205 153.038 164.709 152.75 164.709 152.336C164.709 151.76 164.025 151.58 163.071 151.328C161.163 150.86 159.687 150.338 159.669 148.502C159.651 146.738 161.109 145.478 163.305 145.478C164.637 145.478 165.951 145.946 166.977 146.63L165.915 148.502C165.069 147.98 164.097 147.674 163.305 147.674C162.657 147.674 162.207 147.908 162.207 148.232C162.207 148.736 162.585 148.88 163.845 149.222C165.447 149.636 167.229 150.176 167.229 152.21C167.229 154.046 165.735 155.216 163.449 155.216Z" fill="#8C9CB7"/>
</svg>
