<svg width="21" height="20" viewBox="0 0 21 20" fill="none" xmlns="http://www.w3.org/2000/svg">
<path d="M11.7083 5.83335C11.7083 5.37312 11.3352 5.00002 10.875 5.00002C10.4148 5.00002 10.0417 5.37312 10.0417 5.83335V10C10.0417 10.4603 10.4148 10.8334 10.875 10.8334H14.2083C14.6686 10.8334 15.0417 10.4603 15.0417 10C15.0417 9.53978 14.6686 9.16669 14.2083 9.16669H11.7083V5.83335Z" fill="#B2BDCF"/>
<path fill-rule="evenodd" clip-rule="evenodd" d="M19.2083 10C19.2083 14.6024 15.4774 18.3334 10.875 18.3334C6.27263 18.3334 2.54167 14.6024 2.54167 10C2.54167 5.39765 6.27263 1.66669 10.875 1.66669C15.4774 1.66669 19.2083 5.39765 19.2083 10ZM17.5417 10C17.5417 13.6819 14.5569 16.6667 10.875 16.6667C7.19311 16.6667 4.20834 13.6819 4.20834 10C4.20834 6.31812 7.19311 3.33335 10.875 3.33335C14.5569 3.33335 17.5417 6.31812 17.5417 10Z" fill="#B2BDCF"/>
</svg>
