<svg width="32" height="32" viewBox="0 0 32 32" fill="none" xmlns="http://www.w3.org/2000/svg">
<path d="M21.6569 23.5424C22.1776 24.0631 23.0218 24.0631 23.5425 23.5424C24.0632 23.0217 24.0632 22.1775 23.5425 21.6568L17.8857 16L23.5425 10.3431C24.0632 9.82244 24.0632 8.97822 23.5425 8.45752C23.0218 7.93682 22.1776 7.93682 21.6569 8.45752L16.0001 14.1144L10.3432 8.4575C9.82249 7.9368 8.97827 7.9368 8.45757 8.4575C7.93687 8.97819 7.93687 9.82241 8.45757 10.3431L14.1144 16L8.45757 21.6568C7.93687 22.1775 7.93687 23.0218 8.45757 23.5425C8.97827 24.0632 9.82249 24.0632 10.3432 23.5425L16.0001 17.8856L21.6569 23.5424Z" fill="#081325"/>
</svg>
