<svg width="244" height="245" viewBox="0 0 244 245" fill="none" xmlns="http://www.w3.org/2000/svg">
<path d="M218 98C216.195 83.6387 211.477 69.7496 204.085 57.2079C194.431 40.8301 180.569 27.3505 163.947 18.176C147.325 9.00147 128.552 4.46831 109.586 5.04964C94.7783 5.50354 80.2772 9.06238 67 15.4443" stroke="#4EAAE4" stroke-width="10" stroke-linecap="round"/>
<path d="M7.09007 119.178C8.70953 136.96 13.1811 149.39 20.8891 162.796C29.9503 178.555 42.873 191.743 58.4272 201.103C73.9813 210.464 91.6491 215.686 109.748 216.272C127.351 216.842 144.791 213.008 160.5 205.128" stroke="#4F75AD" stroke-width="10" stroke-linecap="round"/>
<path d="M172.352 197.253C186.439 187.442 197.95 174.383 205.901 159.189C213.697 144.291 217.844 127.775 218.008 111" stroke="#E9A5BD" stroke-width="10" stroke-linecap="round"/>
<path d="M54 23C39.0749 32.905 26.9102 46.4569 18.6519 62.379C11.9339 75.3314 7.98096 89.5055 7 104" stroke="#A81A4C" stroke-width="10" stroke-linecap="round"/>
</svg>
