<svg width="21" height="20" viewBox="0 0 21 20" fill="none" xmlns="http://www.w3.org/2000/svg">
<path d="M8.83333 15C8.3731 15 8 14.6269 8 14.1667L8 8.33332C8 7.87309 8.3731 7.49999 8.83333 7.49999C9.29357 7.49999 9.66667 7.87309 9.66667 8.33332L9.66667 14.1667C9.66667 14.6269 9.29357 15 8.83333 15Z" fill="#EB5757"/>
<path d="M11.3333 14.1667C11.3333 14.6269 11.7064 15 12.1667 15C12.6269 15 13 14.6269 13 14.1667V8.33332C13 7.87309 12.6269 7.49999 12.1667 7.49999C11.7064 7.49999 11.3333 7.87309 11.3333 8.33332V14.1667Z" fill="#EB5757"/>
<path fill-rule="evenodd" clip-rule="evenodd" d="M7.29412 2.99019L6.66667 4.16666H3.83333C3.3731 4.16666 3 4.53975 3 4.99999C3 5.46023 3.3731 5.83332 3.83333 5.83332H3.88053L4.56391 17.5485C4.58962 17.9892 4.95445 18.3333 5.39583 18.3333H15.6042C16.0456 18.3333 16.4104 17.9892 16.4361 17.5485L17.1195 5.83332H17.1667C17.6269 5.83332 18 5.46023 18 4.99999C18 4.53975 17.6269 4.16666 17.1667 4.16666H14.3333L13.7059 2.99019C13.2714 2.17553 12.4233 1.66666 11.5 1.66666H9.5C8.57672 1.66666 7.7286 2.17553 7.29412 2.99019ZM9.5 3.33332C9.19224 3.33332 8.90953 3.50295 8.76471 3.7745L8.55556 4.16666H12.4444L12.2353 3.7745C12.0905 3.50295 11.8078 3.33332 11.5 3.33332H9.5ZM15.45 5.83332H5.55003L6.18197 16.6667H14.818L15.45 5.83332Z" fill="#EB5757"/>
</svg>
