<svg width="32" height="32" viewBox="0 0 32 32" fill="none" xmlns="http://www.w3.org/2000/svg">
<g clip-path="url(#clip0_84_665)">
<path d="M4 10.6667C4 12.4348 4.70238 14.1305 5.95262 15.3807C7.20286 16.631 8.89856 17.3333 10.6667 17.3333C12.4348 17.3333 14.1305 16.631 15.3807 15.3807C16.631 14.1305 17.3333 12.4348 17.3333 10.6667C17.3333 8.89856 16.631 7.20286 15.3807 5.95262C14.1305 4.70238 12.4348 4 10.6667 4C8.89856 4 7.20286 4.70238 5.95262 5.95262C4.70238 7.20286 4 8.89856 4 10.6667Z" stroke="#8C9CB7" stroke-width="1.5" stroke-linecap="round" stroke-linejoin="round"/>
<path d="M17.333 22.6667C17.333 24.0812 17.8949 25.4377 18.8951 26.4379C19.8953 27.4381 21.2519 28 22.6663 28C24.0808 28 25.4374 27.4381 26.4376 26.4379C27.4378 25.4377 27.9997 24.0812 27.9997 22.6667C27.9997 21.2522 27.4378 19.8956 26.4376 18.8954C25.4374 17.8952 24.0808 17.3333 22.6663 17.3333C21.2519 17.3333 19.8953 17.8952 18.8951 18.8954C17.8949 19.8956 17.333 21.2522 17.333 22.6667Z" stroke="#8C9CB7" stroke-width="1.5" stroke-linecap="round" stroke-linejoin="round"/>
<path d="M6 6L15.3333 15.3333" stroke="#8C9CB7" stroke-width="1.5" stroke-linecap="round" stroke-linejoin="round"/>
<path d="M25.9997 19.3333L19.333 26" stroke="#8C9CB7" stroke-width="1.5" stroke-linecap="round" stroke-linejoin="round"/>
</g>
<defs>
<clipPath id="clip0_84_665">
<rect width="32" height="32" fill="white"/>
</clipPath>
</defs>
</svg>
