<svg width="32" height="32" viewBox="0 0 32 32" fill="none" xmlns="http://www.w3.org/2000/svg">
<path d="M27.4665 5.46933V8.40267C27.4665 9.46933 26.7999 10.8027 26.1332 11.4693L20.3999 16.536C19.5999 17.2027 19.0665 18.536 19.0665 19.6027V25.336C19.0665 26.136 18.5332 27.2027 17.8665 27.6027L15.9999 28.8027C14.2665 29.8693 11.8665 28.6693 11.8665 26.536V19.4693C11.8665 18.536 11.3332 17.336 10.7999 16.6693L10.1732 16.016C9.96876 15.8016 9.84194 15.525 9.81294 15.2302C9.78394 14.9354 9.85444 14.6394 10.0132 14.3893L16.8399 3.42933C17.0799 3.04267 17.5065 2.80267 17.9732 2.80267H24.7999C26.2665 2.80267 27.4665 4.00267 27.4665 5.46933ZM13.7999 4.84267L9.06654 12.4293C8.6132 13.1627 7.5732 13.2693 6.9732 12.6427L5.7332 11.336C5.06654 10.6693 4.5332 9.46933 4.5332 8.66933V5.60267C4.5332 4.00267 5.7332 2.80267 7.19987 2.80267H12.6665C13.7065 2.80267 14.3465 3.94933 13.7999 4.84267Z" fill="#193A6F"/>
</svg>
