<svg width="32" height="32" viewBox="0 0 32 32" fill="none" xmlns="http://www.w3.org/2000/svg">
<path d="M14.5865 30.2027C13.9465 30.2027 13.3199 30.0427 12.7332 29.7227C12.1627 29.4125 11.6867 28.9538 11.3557 28.3952C11.0248 27.8365 10.8511 27.1987 10.8532 26.5493V19.4827C10.8532 18.816 10.4132 17.816 9.99987 17.3093L5.0132 12.0293C4.1732 11.1893 3.5332 9.74933 3.5332 8.66933V5.60267C3.5332 3.46933 5.14654 1.80267 7.19987 1.80267H24.7999C26.8265 1.80267 28.4665 3.44267 28.4665 5.46933V8.40267C28.4665 9.80267 27.6265 11.3893 26.8399 12.176L21.0665 17.2827C20.5065 17.7493 20.0665 18.776 20.0665 19.6027V25.336C20.0665 26.5227 19.3199 27.896 18.3865 28.456L16.5465 29.6427C15.9465 30.016 15.2665 30.2027 14.5865 30.2027ZM7.19987 3.80267C6.26654 3.80267 5.5332 4.58933 5.5332 5.60267V8.66933C5.5332 9.16267 5.9332 10.1227 6.43987 10.6293L11.5199 15.976C12.1999 16.816 12.8665 18.216 12.8665 19.4693V26.536C12.8665 27.4027 13.4665 27.8293 13.7199 27.9627C14.2799 28.2693 14.9599 28.2693 15.4799 27.9493L17.3332 26.7627C17.7065 26.536 18.0799 25.816 18.0799 25.336V19.6027C18.0799 18.176 18.7732 16.6027 19.7732 15.7627L25.4799 10.7093C25.9332 10.256 26.4799 9.176 26.4799 8.38933V5.46933C26.4799 4.54933 25.7332 3.80267 24.8132 3.80267H7.19987Z" fill="#8C9CB7"/>
<path d="M7.99976 14.3347C7.81243 14.3317 7.62892 14.2812 7.46643 14.188C7.24157 14.0453 7.08193 13.8198 7.02205 13.5603C6.96216 13.3008 7.00684 13.0281 7.14643 12.8013L13.7198 2.268C13.7889 2.15681 13.8793 2.06034 13.9858 1.98408C14.0922 1.90783 14.2126 1.85329 14.3402 1.82357C14.4677 1.79386 14.5998 1.78955 14.729 1.8109C14.8582 1.83225 14.9819 1.87884 15.0931 1.948C15.2043 2.01716 15.3008 2.10755 15.377 2.21399C15.4533 2.32044 15.5078 2.44086 15.5375 2.56839C15.5672 2.69592 15.5715 2.82805 15.5502 2.95724C15.5288 3.08643 15.4823 3.21015 15.4131 3.32133L8.83976 13.8547C8.65309 14.1613 8.33309 14.3347 7.99976 14.3347Z" fill="#8C9CB7"/>
</svg>
