<svg width="20" height="20" viewBox="0 0 20 20" fill="none" xmlns="http://www.w3.org/2000/svg">
<path d="M9.11665 18.8766C8.71665 18.8766 8.32498 18.7766 7.95831 18.5766C7.60174 18.3828 7.30426 18.0961 7.0974 17.747C6.89054 17.3978 6.78201 16.9992 6.78331 16.5933V12.1766C6.78331 11.76 6.50831 11.135 6.24998 10.8183L3.13331 7.51831C2.60831 6.99331 2.20831 6.09331 2.20831 5.41831V3.50165C2.20831 2.16831 3.21665 1.12665 4.49998 1.12665H15.5C16.7666 1.12665 17.7916 2.15165 17.7916 3.41831V5.25165C17.7916 6.12665 17.2666 7.11831 16.775 7.60998L13.1666 10.8016C12.8166 11.0933 12.5416 11.735 12.5416 12.2516V15.835C12.5416 16.5766 12.075 17.435 11.4916 17.785L10.3416 18.5266C9.96665 18.76 9.54165 18.8766 9.11665 18.8766ZM4.49998 2.37665C3.91665 2.37665 3.45831 2.86831 3.45831 3.50165V5.41831C3.45831 5.72665 3.70831 6.32665 4.02498 6.64331L7.19998 9.98498C7.62498 10.51 8.04165 11.385 8.04165 12.1683V16.585C8.04165 17.1266 8.41665 17.3933 8.57498 17.4766C8.92498 17.6683 9.34998 17.6683 9.67498 17.4683L10.8333 16.7266C11.0666 16.585 11.3 16.135 11.3 15.835V12.2516C11.3 11.36 11.7333 10.3766 12.3583 9.85165L15.925 6.69331C16.2083 6.40998 16.55 5.73498 16.55 5.24331V3.41831C16.55 2.84331 16.0833 2.37665 15.5083 2.37665H4.49998Z" fill="#8C9CB7"/>
<path d="M4.99997 8.95917C4.88289 8.95732 4.7682 8.92578 4.66664 8.8675C4.5261 8.77831 4.42633 8.63737 4.3889 8.47518C4.35147 8.31299 4.3794 8.14259 4.46664 8.00083L8.57497 1.4175C8.6182 1.34801 8.67469 1.28771 8.74122 1.24005C8.80775 1.19239 8.88301 1.1583 8.96272 1.13973C9.04242 1.12116 9.125 1.11847 9.20575 1.13181C9.28649 1.14516 9.36381 1.17427 9.4333 1.2175C9.5028 1.26073 9.56309 1.31722 9.61075 1.38375C9.65841 1.45028 9.6925 1.52554 9.71107 1.60524C9.72964 1.68495 9.73233 1.76753 9.71899 1.84827C9.70565 1.92902 9.67653 2.00634 9.63331 2.07583L5.52497 8.65917C5.40831 8.85083 5.20831 8.95917 4.99997 8.95917Z" fill="#8C9CB7"/>
</svg>
