<svg width="32" height="32" viewBox="0 0 32 32" fill="none" xmlns="http://www.w3.org/2000/svg">
<path fill-rule="evenodd" clip-rule="evenodd" d="M15.1858 12.1081H16.5794C16.8399 12.1081 17.0519 12.3233 17.0519 12.5841V14.3498H18.8077C19.0682 14.3498 19.2802 14.5643 19.2802 14.8257V16.2264C19.2802 16.4885 19.067 16.703 18.8077 16.703H17.0519V18.428C17.0519 18.69 16.8387 18.904 16.5794 18.904H15.1858C14.9253 18.904 14.7127 18.6894 14.7127 18.428V16.703H12.9575C12.697 16.703 12.4844 16.4885 12.4844 16.2264V14.8245C12.4844 14.5625 12.6983 14.3491 12.9575 14.3491H14.7127V12.5841C14.7127 12.322 14.9253 12.1081 15.1858 12.1081Z" fill="#193A6F"/>
<path d="M26.6636 4.50857C22.9349 3.83013 19.6813 2.42776 16.9928 0.34035C16.4081 -0.11345 15.5919 -0.11345 15.0072 0.34035C12.3191 2.42776 9.06575 3.83013 5.33675 4.50857C4.56213 4.64919 4 5.3252 4 6.11545V17.4091C4 23.4779 8.39842 28.8599 15.2051 31.121C15.4613 31.206 15.7307 31.2487 16.0002 31.2487C16.2696 31.2487 16.539 31.206 16.7953 31.121C23.6019 28.8603 28 23.4779 28 17.4091V6.11545C28.0003 5.32486 27.4379 4.64919 26.6636 4.50857ZM16.0002 22.7425C11.884 22.7425 8.53522 19.3937 8.53522 15.2776C8.53522 11.1614 11.884 7.8126 16.0002 7.8126C20.1163 7.8126 23.4651 11.1614 23.4651 15.2776C23.4651 19.3937 20.1163 22.7425 16.0002 22.7425Z" fill="#193A6F"/>
</svg>
