<svg width="32" height="33" viewBox="0 0 32 33" fill="none" xmlns="http://www.w3.org/2000/svg">
<path d="M17.0002 32.8256C16.6717 32.8256 16.3433 32.7739 16.0306 32.6698C9.32988 30.4442 5 25.1152 5 19.0938V8.45948C5 7.37649 5.77131 6.45037 6.83374 6.2572C10.2331 5.63865 13.1943 4.36386 15.6353 2.46812C16.4395 1.84375 17.5612 1.84409 18.3643 2.46812C20.8057 4.36386 23.7669 5.63865 27.1663 6.2572C28.2287 6.45037 29 7.37649 29 8.45948V19.0938C29 25.1152 24.6701 30.4442 17.9694 32.6698C17.6571 32.7739 17.3286 32.8256 17.0002 32.8256ZM17.0002 4.0563C16.9632 4.0563 16.9262 4.06794 16.896 4.09157C14.1913 6.19213 10.9297 7.60117 7.20193 8.27932C7.11699 8.29473 7.055 8.37077 7.055 8.45948V19.0938C7.055 24.2145 10.8324 28.7776 16.6786 30.7196C16.8861 30.7884 17.1146 30.7884 17.3218 30.7196C23.1679 28.7779 26.945 24.2145 26.945 19.0938V8.45948C26.945 8.37043 26.8833 8.29473 26.7988 8.27932C23.0706 7.60117 19.809 6.19213 17.1039 4.09157C17.0738 4.06828 17.0372 4.0563 17.0002 4.0563Z" fill="#8C9CB7"/>
<path fill-rule="evenodd" clip-rule="evenodd" d="M16.197 13.701H17.5718C17.8287 13.701 18.0379 13.9133 18.0379 14.1705V15.9123H19.7699C20.0268 15.9123 20.236 16.124 20.236 16.3818V17.7636C20.236 18.022 20.0256 18.2337 19.7699 18.2337H18.0379V19.9353C18.0379 20.1938 17.8275 20.4048 17.5718 20.4048H16.197C15.9401 20.4048 15.7303 20.1931 15.7303 19.9353V18.2337H13.9989C13.742 18.2337 13.5322 18.022 13.5322 17.7636V16.3806C13.5322 16.1221 13.7432 15.9117 13.9989 15.9117H15.7303V14.1705C15.7303 13.9121 15.9401 13.701 16.197 13.701Z" fill="#8C9CB7"/>
<path d="M17.001 24.8163C12.739 24.8163 9.27148 21.3488 9.27148 17.0867C9.27148 12.8246 12.739 9.35718 17.001 9.35718C21.2631 9.35718 24.7306 12.8246 24.7306 17.0867C24.7306 21.3488 21.2631 24.8163 17.001 24.8163ZM17.001 11.4122C13.8719 11.4122 11.3265 13.958 11.3265 17.0867C11.3265 20.2155 13.8723 22.7613 17.001 22.7613C20.1298 22.7613 22.6756 20.2155 22.6756 17.0867C22.6756 13.958 20.1301 11.4122 17.001 11.4122Z" fill="#8C9CB7"/>
</svg>
