<svg width="32" height="32" viewBox="0 0 32 32" fill="none" xmlns="http://www.w3.org/2000/svg">
<path d="M19.1333 2.66666H12.8667C11.48 2.66666 10.3467 3.78666 10.3467 5.17333V6.42666C10.3467 7.81333 11.4667 8.93333 12.8533 8.93333H19.1333C20.52 8.93333 21.64 7.81333 21.64 6.42666V5.17333C21.6533 3.78666 20.52 2.66666 19.1333 2.66666Z" fill="#193A6F"/>
<path d="M22.9867 6.42667C22.9867 8.54667 21.2534 10.28 19.1334 10.28H12.8667C10.7467 10.28 9.01339 8.54667 9.01339 6.42667C9.01339 5.68 8.21339 5.21334 7.54672 5.56C6.59173 6.06857 5.79311 6.82739 5.23644 7.75517C4.67977 8.68295 4.38604 9.74471 4.38672 10.8267V23.3733C4.38672 26.6533 7.06672 29.3333 10.3467 29.3333H21.6534C24.9334 29.3333 27.6134 26.6533 27.6134 23.3733V10.8267C27.6134 8.54667 26.3334 6.56 24.4534 5.56C23.7867 5.21334 22.9867 5.68 22.9867 6.42667ZM16.5067 22.6H10.6667C10.1201 22.6 9.66672 22.1467 9.66672 21.6C9.66672 21.0533 10.1201 20.6 10.6667 20.6H16.5067C17.0534 20.6 17.5067 21.0533 17.5067 21.6C17.5067 22.1467 17.0534 22.6 16.5067 22.6ZM20.0001 17.2667H10.6667C10.1201 17.2667 9.66672 16.8133 9.66672 16.2667C9.66672 15.72 10.1201 15.2667 10.6667 15.2667H20.0001C20.5467 15.2667 21.0001 15.72 21.0001 16.2667C21.0001 16.8133 20.5467 17.2667 20.0001 17.2667Z" fill="#193A6F"/>
</svg>
