<svg width="32" height="32" viewBox="0 0 32 32" fill="none" xmlns="http://www.w3.org/2000/svg">
<path d="M20.0003 17.2667H10.667C10.1203 17.2667 9.66699 16.8133 9.66699 16.2667C9.66699 15.72 10.1203 15.2667 10.667 15.2667H20.0003C20.547 15.2667 21.0003 15.72 21.0003 16.2667C21.0003 16.8133 20.547 17.2667 20.0003 17.2667ZM16.507 22.6H10.667C10.1203 22.6 9.66699 22.1467 9.66699 21.6C9.66699 21.0533 10.1203 20.6 10.667 20.6H16.507C17.0537 20.6 17.507 21.0533 17.507 21.6C17.507 22.1467 17.0537 22.6 16.507 22.6ZM18.667 9H13.3337C12.0537 9 9.66699 9 9.66699 5.33333C9.66699 1.66667 12.0537 1.66667 13.3337 1.66667H18.667C19.947 1.66667 22.3337 1.66667 22.3337 5.33333C22.3337 6.61333 22.3337 9 18.667 9ZM13.3337 3.66667C12.0137 3.66667 11.667 3.66667 11.667 5.33333C11.667 7 12.0137 7 13.3337 7H18.667C20.3337 7 20.3337 6.65333 20.3337 5.33333C20.3337 3.66667 19.987 3.66667 18.667 3.66667H13.3337Z" fill="#8C9CB7"/>
<path d="M20 30.3333H12C4.50667 30.3333 3 26.8933 3 21.3333V13.3333C3 7.25333 5.2 4.65333 10.6133 4.37333C11.1467 4.34667 11.64 4.76 11.6667 5.32C11.6933 5.88 11.2667 6.33333 10.72 6.36C6.93333 6.57333 5 7.70667 5 13.3333V21.3333C5 26.2667 5.97333 28.3333 12 28.3333H20C26.0267 28.3333 27 26.2667 27 21.3333V13.3333C27 7.70667 25.0667 6.57333 21.28 6.36C21.0155 6.34382 20.768 6.2243 20.5909 6.02723C20.4138 5.83016 20.3213 5.57135 20.3333 5.30667C20.36 4.76 20.84 4.33333 21.3867 4.36C26.8 4.65333 29 7.25333 29 13.32V21.32C29 26.8933 27.4933 30.3333 20 30.3333Z" fill="#8C9CB7"/>
</svg>
