<svg width="32" height="32" viewBox="0 0 32 32" fill="none" xmlns="http://www.w3.org/2000/svg">
<path d="M22.4 2.66666H18.9333C14.6667 2.66666 12 5.33333 12 9.6V15H20.3333C20.88 15 21.3333 15.4533 21.3333 16C21.3333 16.5467 20.88 17 20.3333 17H12V22.4C12 26.6667 14.6667 29.3333 18.9333 29.3333H22.3867C26.6533 29.3333 29.32 26.6667 29.32 22.4V9.6C29.3333 5.33333 26.6667 2.66666 22.4 2.66666Z" fill="#193A6F"/>
<path d="M6.0809 15L8.8409 12.24C9.0409 12.04 9.13423 11.7867 9.13423 11.5333C9.13423 11.28 9.0409 11.0133 8.8409 10.8267C8.65271 10.6407 8.39881 10.5364 8.13423 10.5364C7.86966 10.5364 7.61575 10.6407 7.42757 10.8267L2.9609 15.2933C2.57423 15.68 2.57423 16.32 2.9609 16.7067L7.42757 21.1733C7.81423 21.56 8.45423 21.56 8.8409 21.1733C9.22757 20.7867 9.22757 20.1467 8.8409 19.76L6.0809 17H12.0009V15H6.0809Z" fill="#193A6F"/>
</svg>
