<svg width="32" height="32" viewBox="0 0 32 32" fill="none" xmlns="http://www.w3.org/2000/svg">
<path d="M20.32 29.6933H20.1466C14.2266 29.6933 11.3733 27.36 10.88 22.1333C10.8266 21.5867 11.2266 21.0933 11.7866 21.04C12.32 20.9867 12.8266 21.4 12.88 21.9467C13.2666 26.1333 15.24 27.6933 20.16 27.6933H20.3333C25.76 27.6933 27.68 25.7733 27.68 20.3467V11.6533C27.68 6.22667 25.76 4.30667 20.3333 4.30667H20.16C15.2133 4.30667 13.24 5.89333 12.88 10.16C12.8133 10.7067 12.3466 11.12 11.7866 11.0667C11.6552 11.0564 11.5271 11.0203 11.4097 10.9604C11.2923 10.9005 11.1878 10.818 11.1024 10.7177C11.0169 10.6174 10.9521 10.5011 10.9116 10.3757C10.8712 10.2502 10.8559 10.118 10.8666 9.98667C11.32 4.68 14.1866 2.30667 20.1466 2.30667H20.32C26.8666 2.30667 29.6666 5.10667 29.6666 11.6533V20.3467C29.6666 26.8933 26.8666 29.6933 20.32 29.6933Z" fill="#8C9CB7"/>
<path d="M20.0005 17H4.82715C4.28048 17 3.82715 16.5467 3.82715 16C3.82715 15.4533 4.28048 15 4.82715 15H20.0005C20.5471 15 21.0005 15.4533 21.0005 16C21.0005 16.5467 20.5471 17 20.0005 17Z" fill="#8C9CB7"/>
<path d="M7.79954 21.4667C7.54621 21.4667 7.29287 21.3733 7.09287 21.1733L2.62621 16.7067C2.44023 16.5185 2.33594 16.2646 2.33594 16C2.33594 15.7354 2.44023 15.4815 2.62621 15.2933L7.09287 10.8267C7.47954 10.44 8.11954 10.44 8.50621 10.8267C8.89287 11.2133 8.89287 11.8533 8.50621 12.24L4.74621 16L8.50621 19.76C8.89287 20.1467 8.89287 20.7867 8.50621 21.1733C8.31954 21.3733 8.05287 21.4667 7.79954 21.4667Z" fill="#8C9CB7"/>
</svg>
