<svg width="32" height="32" viewBox="0 0 32 32" fill="none" xmlns="http://www.w3.org/2000/svg">
<path d="M16.0271 27.376C12.9205 27.376 9.81381 26.8827 6.86714 25.896C5.74714 25.5093 4.89381 24.7227 4.52048 23.696C4.13381 22.6693 4.26714 21.536 4.88048 20.5227L6.41381 17.976C6.73381 17.4427 7.02714 16.376 7.02714 15.7493V11.896C7.02714 6.936 11.0671 2.896 16.0271 2.896C20.9871 2.896 25.0271 6.936 25.0271 11.896V15.7493C25.0271 16.3627 25.3205 17.4427 25.6405 17.9893L27.1605 20.5227C27.7338 21.4827 27.8405 22.6427 27.4538 23.696C27.265 24.2113 26.9617 24.6771 26.5668 25.0582C26.1718 25.4392 25.6955 25.7257 25.1738 25.896C22.2405 26.8827 19.1338 27.376 16.0271 27.376ZM16.0271 4.896C12.1738 4.896 9.02714 8.02933 9.02714 11.896V15.7493C9.02714 16.7227 8.62714 18.1627 8.13381 19.0027L6.60048 21.5493C6.30714 22.0427 6.22714 22.5627 6.40048 23.0027C6.56048 23.456 6.96048 23.8027 7.50714 23.9893C13.0384 25.8559 19.0293 25.8559 24.5605 23.9893C25.0405 23.8293 25.4138 23.4693 25.5871 22.9893C25.7605 22.5093 25.7205 21.9893 25.4538 21.5493L23.9205 19.0027C23.4138 18.136 23.0271 16.7093 23.0271 15.736V11.896C23.0271 8.02933 19.8938 4.896 16.0271 4.896Z" fill="#8C9CB7"/>
<path d="M18.5064 5.25333C18.413 5.25333 18.3197 5.24 18.2264 5.21334C17.8397 5.10667 17.4664 5.02667 17.1064 4.97334C15.973 4.82667 14.8797 4.90667 13.853 5.21334C13.4797 5.33334 13.0797 5.21334 12.8264 4.93334C12.7001 4.79535 12.6156 4.62441 12.5826 4.44034C12.5495 4.25627 12.5693 4.06661 12.6397 3.89334C12.9052 3.20805 13.3723 2.61942 13.9793 2.2052C14.5864 1.79098 15.3048 1.57066 16.0397 1.57333C17.5597 1.57333 18.893 2.48 19.4397 3.89334C19.573 4.25334 19.5064 4.65334 19.253 4.93334C19.053 5.14667 18.773 5.25333 18.5064 5.25333ZM16.0264 30.412C14.7064 30.412 13.4264 29.8787 12.493 28.9453C11.5597 28.012 11.0264 26.732 11.0264 25.412H13.0264C13.0264 26.1987 13.3464 26.972 13.9064 27.532C14.4664 28.092 15.2397 28.412 16.0264 28.412C17.6797 28.412 19.0264 27.0653 19.0264 25.412H21.0264C21.0264 28.172 18.7864 30.412 16.0264 30.412Z" fill="#8C9CB7"/>
<path d="M26.6517 9.31832C25.9484 10.0216 24.9946 10.4167 24 10.4167C23.0054 10.4167 22.0516 10.0216 21.3483 9.31832C20.6451 8.61506 20.25 7.66123 20.25 6.66667C20.25 5.67211 20.6451 4.71828 21.3483 4.01502C22.0516 3.31176 23.0054 2.91667 24 2.91667C24.9946 2.91667 25.9484 3.31176 26.6517 4.01502C27.3549 4.71828 27.75 5.67211 27.75 6.66667C27.75 7.66123 27.3549 8.61506 26.6517 9.31832Z" fill="none" stroke="none" stroke-width="0.5"/>
</svg>
