<svg width="32" height="32" viewBox="0 0 32 32" fill="none" xmlns="http://www.w3.org/2000/svg">
<path d="M25.7863 19.32L24.4529 17.1067C24.1729 16.6133 23.9196 15.68 23.9196 15.1333V11.76C23.918 10.2721 23.4952 8.81496 22.7 7.5573C21.9048 6.29965 20.7698 5.29283 19.4263 4.65334C19.0834 4.04446 18.5832 3.53886 17.9781 3.18939C17.3729 2.83991 16.685 2.65938 15.9863 2.66667C14.5329 2.66667 13.2263 3.45334 12.5329 4.69334C9.93293 5.98667 8.13293 8.66667 8.13293 11.76V15.1333C8.13293 15.68 7.8796 16.6133 7.5996 17.0933L6.25293 19.32C5.7196 20.2133 5.5996 21.2 5.93293 22.1067C6.25293 23 7.01293 23.6933 7.9996 24.0267C10.5863 24.9067 13.3063 25.3333 16.0263 25.3333C18.7463 25.3333 21.4663 24.9067 24.0529 24.04C24.9863 23.7333 25.7063 23.0267 26.0529 22.1067C26.3996 21.1867 26.3063 20.1733 25.7863 19.32ZM19.7729 26.68C19.4925 27.4562 18.98 28.1273 18.3049 28.602C17.6298 29.0767 16.8249 29.332 15.9996 29.3333C14.9463 29.3333 13.9063 28.9067 13.1729 28.1467C12.7463 27.7467 12.4263 27.2133 12.2396 26.6667C12.4129 26.6933 12.5863 26.7067 12.7729 26.7333C13.0796 26.7733 13.3996 26.8133 13.7196 26.84C14.4796 26.9067 15.2529 26.9467 16.0263 26.9467C16.7863 26.9467 17.5463 26.9067 18.2929 26.84C18.5729 26.8133 18.8529 26.8 19.1196 26.76L19.7729 26.68Z" fill="#193A6F"/>
<path d="M26.6517 9.31831C25.9484 10.0216 24.9946 10.4167 24 10.4167C23.0054 10.4167 22.0516 10.0216 21.3483 9.31831C20.6451 8.61505 20.25 7.66123 20.25 6.66666C20.25 5.6721 20.6451 4.71828 21.3483 4.01501C22.0516 3.31175 23.0054 2.91666 24 2.91666C24.9946 2.91666 25.9484 3.31175 26.6517 4.01501C27.3549 4.71828 27.75 5.6721 27.75 6.66666C27.75 7.66123 27.3549 8.61505 26.6517 9.31831Z" fill="#EB5757" stroke="white" stroke-width="0.5"/>
</svg>
