<svg width="32" height="32" viewBox="0 0 32 32" fill="none" xmlns="http://www.w3.org/2000/svg">
<path d="M19.1333 2.66667H12.8667C11.48 2.66667 10.3467 3.78667 10.3467 5.17333V6.42667C10.3467 7.81333 11.4667 8.93333 12.8533 8.93333H19.1333C20.52 8.93333 21.64 7.81333 21.64 6.42667V5.17333C21.6533 3.78667 20.52 2.66667 19.1333 2.66667Z" fill="#193A6F"/>
<path d="M19.1334 10.28C21.2534 10.28 22.9867 8.54667 22.9867 6.42667C22.9867 5.68 23.7867 5.21333 24.4534 5.56C26.3334 6.56 27.6134 8.54667 27.6134 10.8267V23.3733C27.6134 26.6533 24.9334 29.3333 21.6534 29.3333H10.3467C7.06672 29.3333 4.38672 26.6533 4.38672 23.3733V10.8267C4.38604 9.7447 4.67977 8.68294 5.23644 7.75517C5.79311 6.82739 6.59173 6.06856 7.54672 5.56C8.21339 5.21333 9.01339 5.68 9.01339 6.42667C9.01339 8.54667 10.7467 10.28 12.8667 10.28H19.1334Z" fill="#193A6F"/>
<path d="M19.5 23.5L12.5 16.5M19.5 16.5L12.5 23.5M20 20H12M16 24V20L16 16" stroke="white" stroke-width="1.5" stroke-linecap="round" stroke-linejoin="round"/>
</svg>
