<svg width="32" height="32" viewBox="0 0 32 32" fill="none" xmlns="http://www.w3.org/2000/svg">
<path d="M12.2117 15.4933H12.1051C12.0256 15.48 11.9445 15.48 11.8651 15.4933C7.99841 15.3733 5.07841 12.3333 5.07841 8.58667C5.07841 4.77333 8.18507 1.66667 11.9984 1.66667C15.8117 1.66667 18.9184 4.77333 18.9184 8.58667C18.9051 12.3333 15.9717 15.3733 12.2517 15.4933H12.2117ZM11.9984 3.66667C10.6946 3.67019 9.44525 4.18967 8.52333 5.11159C7.60141 6.03351 7.08193 7.28289 7.07841 8.58667C7.07841 11.2533 9.15841 13.4 11.8117 13.4933C11.8917 13.48 12.0651 13.48 12.2384 13.4933C14.8517 13.3733 16.9051 11.2267 16.9184 8.58667C16.9149 7.28289 16.3954 6.03351 15.4735 5.11159C14.5516 4.18967 13.3022 3.67019 11.9984 3.66667ZM22.0504 15.6667C22.0104 15.6667 21.9704 15.6667 21.9304 15.6533C21.3837 15.7067 20.8237 15.32 20.7704 14.7733C20.7171 14.2267 21.0504 13.7333 21.5971 13.6667C21.7571 13.6533 21.9304 13.6533 22.0771 13.6533C24.0237 13.5467 25.5437 11.9467 25.5437 9.98667C25.5437 7.96 23.9037 6.32 21.8771 6.32C21.7464 6.32177 21.6166 6.29755 21.4954 6.24876C21.3741 6.19996 21.2638 6.12757 21.1708 6.03577C21.0777 5.94397 21.0039 5.83461 20.9534 5.71402C20.903 5.59344 20.8771 5.46404 20.8771 5.33333C20.8771 4.78667 21.3304 4.33333 21.8771 4.33333C23.3789 4.33686 24.8182 4.93501 25.8801 5.99695C26.9421 7.0589 27.5402 8.49819 27.5437 10C27.5437 13.0667 25.1437 15.5467 22.0904 15.6667H22.0504ZM12.2291 30.0667C9.61574 30.0667 6.98908 29.4 5.00241 28.0667C3.14908 26.84 2.13574 25.16 2.13574 23.3333C2.13574 21.5067 3.14908 19.8133 5.00241 18.5733C9.00241 15.92 15.4824 15.92 19.4557 18.5733C21.2957 19.8 22.3224 21.48 22.3224 23.3067C22.3224 25.1333 21.3091 26.8267 19.4557 28.0667C17.4557 29.4 14.8424 30.0667 12.2291 30.0667ZM6.10908 20.2533C4.82908 21.1067 4.13574 22.2 4.13574 23.3467C4.13574 24.48 4.84241 25.5733 6.10908 26.4133C9.42908 28.64 15.0291 28.64 18.3491 26.4133C19.6291 25.56 20.3224 24.4667 20.3224 23.32C20.3224 22.1867 19.6157 21.0933 18.3491 20.2533C15.0291 18.04 9.42908 18.04 6.10908 20.2533ZM24.4504 27.6667C23.9837 27.6667 23.5704 27.3467 23.4771 26.8667C23.4255 26.6071 23.4775 26.3375 23.622 26.1158C23.7665 25.894 23.9921 25.7376 24.2504 25.68C25.0904 25.5067 25.8637 25.1733 26.4637 24.7067C27.2237 24.1333 27.6371 23.4133 27.6371 22.6533C27.6371 21.8933 27.2237 21.1733 26.4771 20.6133C25.8904 20.16 25.1571 19.84 24.2904 19.64C24.031 19.5808 23.8055 19.4214 23.6631 19.1966C23.5208 18.9718 23.4731 18.6998 23.5304 18.44C23.6504 17.9067 24.1837 17.56 24.7304 17.68C25.8771 17.9333 26.8771 18.3867 27.6904 19.0133C28.9304 19.9467 29.6371 21.2667 29.6371 22.6533C29.6371 24.04 28.9171 25.36 27.6771 26.3067C26.8504 26.9467 25.8104 27.4133 24.6637 27.64C24.5837 27.6667 24.5171 27.6667 24.4504 27.6667Z" fill="#8C9CB7"/>
</svg>
