<svg width="20" height="20" viewBox="0 0 20 20" fill="none" xmlns="http://www.w3.org/2000/svg">
<g clip-path="url(#clip0_1093_3360)">
<path d="M2.5 6.66667C2.5 7.77174 2.93899 8.83154 3.72039 9.61294C4.50179 10.3943 5.5616 10.8333 6.66667 10.8333C7.77174 10.8333 8.83154 10.3943 9.61294 9.61294C10.3943 8.83154 10.8333 7.77174 10.8333 6.66667C10.8333 5.5616 10.3943 4.50179 9.61294 3.72039C8.83154 2.93899 7.77174 2.5 6.66667 2.5C5.5616 2.5 4.50179 2.93899 3.72039 3.72039C2.93899 4.50179 2.5 5.5616 2.5 6.66667Z" stroke="#8C9CB7" stroke-width="1.5" stroke-linecap="round" stroke-linejoin="round"/>
<path d="M10.8333 14.1666C10.8333 15.0507 11.1845 15.8985 11.8096 16.5237C12.4348 17.1488 13.2826 17.5 14.1667 17.5C15.0507 17.5 15.8986 17.1488 16.5237 16.5237C17.1488 15.8985 17.5 15.0507 17.5 14.1666C17.5 13.2826 17.1488 12.4347 16.5237 11.8096C15.8986 11.1845 15.0507 10.8333 14.1667 10.8333C13.2826 10.8333 12.4348 11.1845 11.8096 11.8096C11.1845 12.4347 10.8333 13.2826 10.8333 14.1666Z" stroke="#8C9CB7" stroke-width="1.5" stroke-linecap="round" stroke-linejoin="round"/>
<path d="M3.75 3.75L9.58333 9.58333" stroke="#8C9CB7" stroke-width="1.5" stroke-linecap="round" stroke-linejoin="round"/>
<path d="M16.25 12.0833L12.0833 16.25" stroke="#8C9CB7" stroke-width="1.5" stroke-linecap="round" stroke-linejoin="round"/>
</g>
<defs>
<clipPath id="clip0_1093_3360">
<rect width="20" height="20" fill="white"/>
</clipPath>
</defs>
</svg>
