<svg width="32" height="32" viewBox="0 0 32 32" fill="none" xmlns="http://www.w3.org/2000/svg">
<path d="M18.667 9H13.3337C12.0537 9 9.66699 9 9.66699 5.33333C9.66699 1.66667 12.0537 1.66667 13.3337 1.66667H18.667C19.947 1.66667 22.3337 1.66667 22.3337 5.33333C22.3337 6.61333 22.3337 9 18.667 9ZM13.3337 3.66667C12.0137 3.66667 11.667 3.66667 11.667 5.33333C11.667 7 12.0137 7 13.3337 7H18.667C20.3337 7 20.3337 6.65333 20.3337 5.33333C20.3337 3.66667 19.987 3.66667 18.667 3.66667H13.3337Z" fill="#8C9CB7"/>
<path d="M20 30.3333H12C4.50667 30.3333 3 26.8933 3 21.3333V13.3333C3 7.25333 5.2 4.65333 10.6133 4.37333C11.1467 4.34667 11.64 4.76 11.6667 5.32C11.6933 5.88 11.2667 6.33333 10.72 6.36C6.93333 6.57333 5 7.70667 5 13.3333V21.3333C5 26.2667 5.97333 28.3333 12 28.3333H20C26.0267 28.3333 27 26.2667 27 21.3333V13.3333C27 7.70667 25.0667 6.57333 21.28 6.36C21.0155 6.34382 20.768 6.2243 20.5909 6.02723C20.4138 5.83016 20.3213 5.57135 20.3333 5.30667C20.36 4.76 20.84 4.33333 21.3867 4.36C26.8 4.65333 29 7.25333 29 13.32V21.32C29 26.8933 27.4933 30.3333 20 30.3333Z" fill="#8C9CB7"/>
<path d="M13 21V12H15.5C16.163 12 16.7989 12.2667 17.2678 12.7414C17.7366 13.2161 18 13.8599 18 14.5312C18 15.2026 17.7366 15.8464 17.2678 16.3211C16.7989 16.7958 16.163 17.0625 15.5 17.0625H13" stroke="#8C9CB7" stroke-width="1.5" stroke-linecap="round" stroke-linejoin="round"/>
<path d="M20 22L15.5 17.5" stroke="#8C9CB7" stroke-width="1.5" stroke-linecap="round" stroke-linejoin="round"/>
<path d="M17 22L20 19" stroke="#8C9CB7" stroke-width="1.5" stroke-linecap="round" stroke-linejoin="round"/>
<path d="M20.405 23.6397L22.6397 21.405C22.899 21.1457 23.2506 21 23.6173 21C23.9841 21 24.3357 21.1457 24.595 21.405C24.8543 21.6643 25 22.0159 25 22.3827C25 22.7494 24.8543 23.101 24.595 23.3603L22.3603 25.595C22.101 25.8543 21.7494 26 21.3827 26C21.0159 26 20.6643 25.8543 20.405 25.595C20.1457 25.3357 20 24.9841 20 24.6173C20 24.2506 20.1457 23.899 20.405 23.6397Z" stroke="#8C9CB7" stroke-linecap="round" stroke-linejoin="round"/>
<path d="M22 23L23 24" stroke="#8C9CB7" stroke-linecap="round" stroke-linejoin="round"/>
</svg>
