<svg width="30" height="30" viewBox="0 0 30 30" fill="none" xmlns="http://www.w3.org/2000/svg">
<path d="M17.5 8.4375H12.5C11.3 8.4375 9.0625 8.4375 9.0625 5C9.0625 1.5625 11.3 1.5625 12.5 1.5625H17.5C18.7 1.5625 20.9375 1.5625 20.9375 5C20.9375 6.2 20.9375 8.4375 17.5 8.4375ZM12.5 3.4375C11.2625 3.4375 10.9375 3.4375 10.9375 5C10.9375 6.5625 11.2625 6.5625 12.5 6.5625H17.5C19.0625 6.5625 19.0625 6.2375 19.0625 5C19.0625 3.4375 18.7375 3.4375 17.5 3.4375H12.5Z" fill="#3F5B87"/>
<path d="M18.75 28.4375H11.25C4.225 28.4375 2.8125 25.2125 2.8125 20V12.5C2.8125 6.80001 4.875 4.36251 9.95 4.10001C10.45 4.07501 10.9125 4.46251 10.9375 4.98751C10.9625 5.51251 10.5625 5.93751 10.05 5.96251C6.5 6.16251 4.6875 7.22501 4.6875 12.5V20C4.6875 24.625 5.6 26.5625 11.25 26.5625H18.75C24.4 26.5625 25.3125 24.625 25.3125 20V12.5C25.3125 7.22501 23.5 6.16251 19.95 5.96251C19.7021 5.94734 19.47 5.83529 19.304 5.65054C19.1379 5.46579 19.0512 5.22315 19.0625 4.97501C19.0875 4.46251 19.5375 4.06251 20.05 4.08751C25.125 4.36251 27.1875 6.80001 27.1875 12.4875V19.9875C27.1875 25.2125 25.775 28.4375 18.75 28.4375Z" fill="#3F5B87"/>
<path d="M12.1875 19.6875V11.25H14.5312C15.1529 11.25 15.749 11.5 16.1885 11.945C16.6281 12.3901 16.875 12.9937 16.875 13.623C16.875 14.2524 16.6281 14.856 16.1885 15.301C15.749 15.7461 15.1529 15.9961 14.5312 15.9961H12.1875" stroke="#3F5B87" stroke-width="1.5" stroke-linecap="round" stroke-linejoin="round"/>
<path d="M18.75 20.625L14.5312 16.4062" stroke="#3F5B87" stroke-width="1.5" stroke-linecap="round" stroke-linejoin="round"/>
<path d="M15.9375 20.625L18.75 17.8125" stroke="#3F5B87" stroke-width="1.5" stroke-linecap="round" stroke-linejoin="round"/>
<path d="M19.1297 22.1622L21.2247 20.0672C21.4678 19.8241 21.7975 19.6875 22.1413 19.6875C22.485 19.6875 22.8148 19.8241 23.0578 20.0672C23.3009 20.3102 23.4375 20.64 23.4375 20.9837C23.4375 21.3275 23.3009 21.6572 23.0578 21.9003L20.9628 23.9953C20.7197 24.2384 20.39 24.375 20.0462 24.375C19.7025 24.375 19.3727 24.2384 19.1297 23.9953C18.8866 23.7523 18.75 23.4225 18.75 23.0788C18.75 22.735 18.8866 22.4053 19.1297 22.1622Z" stroke="#3F5B87" stroke-linecap="round" stroke-linejoin="round"/>
<path d="M20.625 21.5625L21.5625 22.5" stroke="#3F5B87" stroke-linecap="round" stroke-linejoin="round"/>
</svg>
