<svg width="32" height="32" viewBox="0 0 32 32" fill="none" xmlns="http://www.w3.org/2000/svg">
<path d="M19.1333 2.66666H12.8667C11.48 2.66666 10.3467 3.78666 10.3467 5.17332V6.42666C10.3467 7.81332 11.4667 8.93332 12.8533 8.93332H19.1333C20.52 8.93332 21.64 7.81332 21.64 6.42666V5.17332C21.6533 3.78666 20.52 2.66666 19.1333 2.66666Z" fill="#193A6F"/>
<path d="M19.1334 10.28C21.2534 10.28 22.9867 8.54667 22.9867 6.42667C22.9867 5.68 23.7867 5.21334 24.4534 5.56C26.3334 6.56 27.6134 8.54667 27.6134 10.8267V23.3733C27.6134 26.6533 24.9334 29.3333 21.6534 29.3333H10.3467C7.06672 29.3333 4.38672 26.6533 4.38672 23.3733V10.8267C4.38604 9.74471 4.67977 8.68295 5.23644 7.75517C5.79311 6.82739 6.59173 6.06857 7.54672 5.56C8.21339 5.21334 9.01339 5.68 9.01339 6.42667C9.01339 8.54667 10.7467 10.28 12.8667 10.28H19.1334Z" fill="#193A6F"/>
<path d="M13 22V13H15.5C16.163 13 16.7989 13.2667 17.2678 13.7414C17.7366 14.2161 18 14.8599 18 15.5312C18 16.2026 17.7366 16.8464 17.2678 17.3211C16.7989 17.7958 16.163 18.0625 15.5 18.0625H13" stroke="#D1D8E2" stroke-width="1.5" stroke-linecap="round" stroke-linejoin="round"/>
<path d="M20 23L15.5 18.5" stroke="#D1D8E2" stroke-width="1.5" stroke-linecap="round" stroke-linejoin="round"/>
<path d="M17 23L20 20" stroke="#D1D8E2" stroke-width="1.5" stroke-linecap="round" stroke-linejoin="round"/>
<path d="M20.405 24.6397L22.6397 22.405C22.899 22.1457 23.2506 22 23.6173 22C23.9841 22 24.3357 22.1457 24.595 22.405C24.8543 22.6643 25 23.0159 25 23.3827C25 23.7494 24.8543 24.101 24.595 24.3603L22.3603 26.595C22.101 26.8543 21.7494 27 21.3827 27C21.0159 27 20.6643 26.8543 20.405 26.595C20.1457 26.3357 20 25.9841 20 25.6173C20 25.2506 20.1457 24.899 20.405 24.6397Z" stroke="#D1D8E2" stroke-linecap="round" stroke-linejoin="round"/>
<path d="M22 24L23 25" stroke="#D1D8E2" stroke-linecap="round" stroke-linejoin="round"/>
</svg>
