<svg width="20" height="21" viewBox="0 0 20 21" fill="none" xmlns="http://www.w3.org/2000/svg">
<path d="M12.125 19.1834C11.85 19.1834 11.5916 19 11.5166 18.7167C11.425 18.3834 11.625 18.0417 11.9666 17.95C13.6126 17.5148 15.0684 16.5472 16.107 15.1982C17.1455 13.8491 17.7086 12.1942 17.7083 10.4917C17.7083 6.24169 14.25 2.78335 9.99996 2.78335C6.39163 2.78335 4.02496 4.89169 2.91663 6.16669H5.36663C5.53349 6.16669 5.69352 6.23297 5.81151 6.35097C5.92951 6.46896 5.99579 6.62899 5.99579 6.79585C5.99579 6.96272 5.92951 7.12275 5.81151 7.24074C5.69352 7.35873 5.53349 7.42502 5.36663 7.42502H1.67496C1.63329 7.42502 1.55829 7.41669 1.49996 7.40002C1.42867 7.37688 1.36125 7.34317 1.29996 7.30002C1.22715 7.25103 1.16714 7.18531 1.12496 7.10835C1.07993 7.02879 1.05158 6.9409 1.04163 6.85002V3.00002C1.04163 2.65835 1.32496 2.37502 1.66663 2.37502C2.00829 2.37502 2.29163 2.65835 2.29163 3.00002V4.99169C3.64996 3.53335 6.20829 1.54169 9.99996 1.54169C14.9416 1.54169 18.9583 5.55835 18.9583 10.5C18.9583 14.5667 16.2166 18.1334 12.2833 19.1667C12.2333 19.175 12.175 19.1834 12.125 19.1834ZM9.40829 19.4417C9.39163 19.4417 9.37496 19.4334 9.36663 19.4334C8.46663 19.375 7.58329 19.175 6.74996 18.85C6.67313 18.8208 6.60286 18.7766 6.54319 18.72C6.48353 18.6635 6.43566 18.5957 6.40234 18.5205C6.36903 18.4454 6.35093 18.3644 6.34909 18.2822C6.34725 18.2 6.36171 18.1183 6.39163 18.0417C6.51663 17.725 6.89163 17.5667 7.19996 17.6834C7.92496 17.9667 8.68329 18.1334 9.44996 18.1917C9.77496 18.2084 10.0333 18.4917 10.0333 18.825L10.025 18.8584C10.0083 19.1834 9.73329 19.4417 9.40829 19.4417ZM4.81663 17.65C4.67496 17.65 4.54163 17.6 4.42496 17.5167C3.72496 16.95 3.10829 16.2917 2.60829 15.5584C2.55982 15.4917 2.52538 15.416 2.50707 15.3357C2.48876 15.2553 2.48695 15.1721 2.50175 15.0911C2.51656 15.0101 2.54767 14.9329 2.5932 14.8642C2.63873 14.7956 2.69773 14.7369 2.76663 14.6917C2.90302 14.6016 3.06864 14.567 3.2297 14.5948C3.39076 14.6227 3.53511 14.711 3.63329 14.8417V14.85C3.64163 14.8584 3.64996 14.875 3.65829 14.8834C4.09056 15.5069 4.61291 16.063 5.20829 16.5334C5.34996 16.65 5.44163 16.825 5.44163 17.0167C5.44163 17.1584 5.39996 17.3 5.30829 17.4167C5.18329 17.5667 5.00829 17.65 4.81663 17.65ZM2.03329 13.5834C1.75829 13.5834 1.51663 13.4084 1.44163 13.15C1.17496 12.2917 1.04163 11.4 1.04163 10.5V10.4917C1.04996 10.15 1.32496 9.87502 1.66663 9.87502C2.00829 9.87502 2.29163 10.1584 2.29163 10.5C2.29163 11.2834 2.40829 12.05 2.63329 12.775C2.64996 12.8417 2.65829 12.9 2.65829 12.9667C2.65675 13.1312 2.59015 13.2884 2.47303 13.404C2.35591 13.5195 2.19782 13.584 2.03329 13.5834Z" fill="#193A6F"/>
</svg>
