<svg width="32" height="32" viewBox="0 0 32 32" fill="none" xmlns="http://www.w3.org/2000/svg">
<path d="M17.333 12H24.6663L17.333 4.66667V12ZM7.99967 2.66667H18.6663L26.6663 10.6667V26.6667C26.6663 27.3739 26.3854 28.0522 25.8853 28.5523C25.3852 29.0524 24.7069 29.3333 23.9997 29.3333H7.99967C7.29243 29.3333 6.61415 29.0524 6.11406 28.5523C5.61396 28.0522 5.33301 27.3739 5.33301 26.6667V5.33333C5.33301 3.85333 6.51967 2.66667 7.99967 2.66667ZM9.33301 26.6667H11.9997V18.6667H9.33301V26.6667ZM14.6663 26.6667H17.333V16H14.6663V26.6667ZM19.9997 26.6667H22.6663V21.3333H19.9997V26.6667Z" fill="#193A6F"/>
</svg>
