<svg width="32" height="32" viewBox="0 0 32 32" fill="none" xmlns="http://www.w3.org/2000/svg">
<path d="M26.8003 12.2947C24.387 12.2947 23.4003 10.588 24.6003 8.49466C25.2937 7.28133 24.8803 5.73466 23.667 5.04133L21.3603 3.72133C20.307 3.09467 18.947 3.468 18.3203 4.52133L18.1737 4.77467C16.9737 6.868 15.0003 6.868 13.787 4.77467L13.6403 4.52133C13.4966 4.26931 13.3042 4.04838 13.0743 3.87142C12.8444 3.69445 12.5815 3.56498 12.3011 3.49053C12.0207 3.41609 11.7283 3.39815 11.4409 3.43778C11.1535 3.4774 10.8768 3.57379 10.627 3.72133L8.32033 5.04133C7.10699 5.73466 6.69366 7.29467 7.38699 8.508C8.60033 10.588 7.61366 12.2947 5.20033 12.2947C3.81366 12.2947 2.66699 13.428 2.66699 14.828V17.1747C2.66699 18.5613 3.80033 19.708 5.20033 19.708C7.61366 19.708 8.60033 21.4147 7.38699 23.508C6.69366 24.7213 7.10699 26.268 8.32033 26.9613L10.627 28.2813C11.6803 28.908 13.0403 28.5347 13.667 27.4813L13.8137 27.228C15.0137 25.1347 16.987 25.1347 18.2003 27.228L18.347 27.4813C18.9737 28.5347 20.3337 28.908 21.387 28.2813L23.6937 26.9613C24.907 26.268 25.3203 24.708 24.627 23.508C23.4137 21.4147 24.4003 19.708 26.8137 19.708C28.2003 19.708 29.347 18.5747 29.347 17.1747V14.828C29.34 14.156 29.069 13.5137 28.5926 13.0397C28.1161 12.5657 27.4724 12.2981 26.8003 12.2947ZM16.0003 20.3347C13.6137 20.3347 11.667 18.388 11.667 16.0013C11.667 13.6147 13.6137 11.668 16.0003 11.668C18.387 11.668 20.3337 13.6147 20.3337 16.0013C20.3337 18.388 18.387 20.3347 16.0003 20.3347Z" fill="#193A6F"/>
</svg>
