<svg width="32" height="32" viewBox="0 0 32 32" fill="none" xmlns="http://www.w3.org/2000/svg">
<path d="M16 21C13.24 21 11 18.76 11 16C11 13.24 13.24 11 16 11C18.76 11 21 13.24 21 16C21 18.76 18.76 21 16 21ZM16 13C14.3467 13 13 14.3467 13 16C13 17.6533 14.3467 19 16 19C17.6533 19 19 17.6533 19 16C19 14.3467 17.6533 13 16 13Z" fill="#8C9CB7"/>
<path d="M20.2803 29.5867C20.0003 29.5867 19.7203 29.5467 19.4403 29.48C18.6137 29.2533 17.9203 28.7333 17.4803 28L17.3203 27.7333C16.5337 26.3733 15.4537 26.3733 14.667 27.7333L14.5203 27.9867C14.0803 28.7333 13.387 29.2667 12.5603 29.48C11.7203 29.7067 10.8537 29.5867 10.1203 29.1467L7.82699 27.8267C7.42403 27.5958 7.07054 27.2877 6.78673 26.9201C6.50293 26.5525 6.29439 26.1325 6.17303 25.6842C6.05167 25.2359 6.01988 24.7681 6.07947 24.3075C6.13906 23.847 6.28887 23.4026 6.52033 23C6.90699 22.32 7.01366 21.7067 6.78699 21.32C6.56033 20.9333 5.98699 20.7067 5.20033 20.7067C3.25366 20.7067 1.66699 19.12 1.66699 17.1733V14.8267C1.66699 12.88 3.25366 11.2933 5.20033 11.2933C5.98699 11.2933 6.56033 11.0667 6.78699 10.68C7.01366 10.2933 6.92033 9.68 6.52033 9C6.05366 8.18667 5.93366 7.22667 6.17366 6.32C6.41366 5.4 7.00033 4.64 7.82699 4.17334L10.1337 2.85334C11.6403 1.96 13.627 2.48 14.5337 4.01333L14.6937 4.28C15.4803 5.64 16.5603 5.64 17.347 4.28L17.4937 4.02667C18.4003 2.48 20.387 1.96 21.907 2.86667L24.2003 4.18667C24.6033 4.41756 24.9568 4.72562 25.2406 5.09324C25.5244 5.46086 25.7329 5.88083 25.8543 6.32911C25.9757 6.7774 26.0074 7.24521 25.9479 7.7058C25.8883 8.16638 25.7384 8.6107 25.507 9.01334C25.1203 9.69334 25.0137 10.3067 25.2403 10.6933C25.467 11.08 26.0403 11.3067 26.827 11.3067C28.7737 11.3067 30.3603 12.8933 30.3603 14.84V17.1867C30.3603 19.1333 28.7737 20.72 26.827 20.72C26.0403 20.72 25.467 20.9467 25.2403 21.3333C25.0137 21.72 25.107 22.3333 25.507 23.0133C25.9737 23.8267 26.107 24.7867 25.8537 25.6933C25.7378 26.1444 25.5314 26.5673 25.2472 26.9363C24.9631 27.3053 24.6069 27.6127 24.2003 27.84L21.8937 29.16C21.387 29.44 20.8403 29.5867 20.2803 29.5867ZM16.0003 24.6533C17.187 24.6533 18.2937 25.4 19.0537 26.72L19.2003 26.9733C19.3603 27.2533 19.627 27.4533 19.947 27.5333C20.267 27.6133 20.587 27.5733 20.8537 27.4133L23.1603 26.08C23.5124 25.8769 23.77 25.5432 23.8774 25.1512C23.9847 24.7593 23.9331 24.3408 23.7337 23.9867C22.9737 22.68 22.8803 21.3333 23.467 20.3067C24.0537 19.28 25.267 18.6933 26.787 18.6933C27.6403 18.6933 28.3203 18.0133 28.3203 17.16V14.8133C28.3203 13.9733 27.6403 13.28 26.787 13.28C25.267 13.28 24.0537 12.6933 23.467 11.6667C22.8803 10.64 22.9737 9.29333 23.7337 7.98667C23.9337 7.64 23.987 7.22667 23.8803 6.82667C23.7737 6.42667 23.5203 6.10667 23.1737 5.89334L20.867 4.57334C20.7278 4.49174 20.574 4.43839 20.4142 4.41634C20.2544 4.3943 20.0918 4.40399 19.9357 4.44486C19.7797 4.48573 19.6332 4.55698 19.5047 4.65452C19.3763 4.75207 19.2683 4.874 19.187 5.01333L19.0403 5.26667C18.2803 6.58667 17.1737 7.33333 15.987 7.33333C14.8003 7.33333 13.6937 6.58667 12.9337 5.26667L12.787 5C12.6213 4.72751 12.3558 4.53045 12.047 4.45076C11.7382 4.37107 11.4105 4.41505 11.1337 4.57334L8.82699 5.90667C8.47496 6.10973 8.21728 6.44349 8.10993 6.83546C8.00258 7.22742 8.05423 7.64591 8.25366 8C9.01366 9.30667 9.10699 10.6533 8.52033 11.68C7.93366 12.7067 6.72033 13.2933 5.20033 13.2933C4.34699 13.2933 3.66699 13.9733 3.66699 14.8267V17.1733C3.66699 18.0133 4.34699 18.7067 5.20033 18.7067C6.72033 18.7067 7.93366 19.2933 8.52033 20.32C9.10699 21.3467 9.01366 22.6933 8.25366 24C8.05366 24.3467 8.00033 24.76 8.10699 25.16C8.21366 25.56 8.46699 25.88 8.81366 26.0933L11.1203 27.4133C11.4003 27.5867 11.7337 27.6267 12.0403 27.5467C12.3603 27.4667 12.627 27.2533 12.8003 26.9733L12.947 26.72C13.707 25.4133 14.8137 24.6533 16.0003 24.6533Z" fill="#8C9CB7"/>
</svg>
