<svg width="20" height="21" viewBox="0 0 20 21" fill="none" xmlns="http://www.w3.org/2000/svg">
<path d="M13.3925 2.61328C12.9323 2.61328 12.5592 2.98638 12.5592 3.44661C12.5592 3.90685 12.9323 4.27995 13.3925 4.27995H14.9162L9.85699 9.33917C9.53156 9.66461 9.53156 10.1922 9.85699 10.5177C10.1824 10.8431 10.7101 10.8431 11.0355 10.5177L16.0947 5.45846L16.0947 6.98215C16.0947 7.44239 16.4678 7.81548 16.9281 7.81548C17.3883 7.81548 17.7614 7.44239 17.7614 6.98215L17.7614 3.44662C17.7614 3.2174 17.6688 3.00979 17.5191 2.85913L17.5173 2.85736L17.5155 2.85559C17.4361 2.77657 17.3446 2.71688 17.247 2.67651C17.1488 2.63577 17.0411 2.61328 16.9281 2.61328H13.3925Z" fill="#193A6F"/>
<path d="M5 3.00034H11.25V4.56284H5C4.48223 4.56284 4.0625 4.98257 4.0625 5.50034V15.5003C4.0625 16.0181 4.48223 16.4378 5 16.4378H15C15.5178 16.4378 15.9375 16.0181 15.9375 15.5003V9.25034H17.5V15.5003C17.5 16.881 16.3807 18.0003 15 18.0003H5C3.61929 18.0003 2.5 16.881 2.5 15.5003V5.50034C2.5 4.11963 3.61929 3.00034 5 3.00034Z" fill="#193A6F"/>
</svg>
